<svg id="visual" viewBox="0 0 900 600" width="900" height="600" xmlns="http://www.w3.org/2000/svg" xmlns:xlink="http://www.w3.org/1999/xlink" version="1.1"><path d="M0 118L21.5 121.3C43 124.7 86 131.3 128.8 140.5C171.7 149.7 214.3 161.3 257.2 170.8C300 180.3 343 187.7 385.8 183.2C428.7 178.7 471.3 162.3 514.2 156.2C557 150 600 154 642.8 152.2C685.7 150.3 728.3 142.7 771.2 137C814 131.3 857 127.7 878.5 125.8L900 124L900 0L878.5 0C857 0 814 0 771.2 0C728.3 0 685.7 0 642.8 0C600 0 557 0 514.2 0C471.3 0 428.7 0 385.8 0C343 0 300 0 257.2 0C214.3 0 171.7 0 128.8 0C86 0 43 0 21.5 0L0 0Z" fill="#828292"></path><path d="M0 94L21.5 99.5C43 105 86 116 128.8 123.2C171.7 130.3 214.3 133.7 257.2 127.5C300 121.3 343 105.7 385.8 96.2C428.7 86.7 471.3 83.3 514.2 84.5C557 85.7 600 91.3 642.8 96.3C685.7 101.3 728.3 105.7 771.2 107.2C814 108.7 857 107.3 878.5 106.7L900 106L900 0L878.5 0C857 0 814 0 771.2 0C728.3 0 685.7 0 642.8 0C600 0 557 0 514.2 0C471.3 0 428.7 0 385.8 0C343 0 300 0 257.2 0C214.3 0 171.7 0 128.8 0C86 0 43 0 21.5 0L0 0Z" fill="#9f99a3"></path><path d="M0 64L21.5 58.2C43 52.3 86 40.7 128.8 38.8C171.7 37 214.3 45 257.2 48C300 51 343 49 385.8 51.8C428.7 54.7 471.3 62.3 514.2 67.8C557 73.3 600 76.7 642.8 71.7C685.7 66.7 728.3 53.3 771.2 52C814 50.7 857 61.3 878.5 66.7L900 72L900 0L878.5 0C857 0 814 0 771.2 0C728.3 0 685.7 0 642.8 0C600 0 557 0 514.2 0C471.3 0 428.7 0 385.8 0C343 0 300 0 257.2 0C214.3 0 171.7 0 128.8 0C86 0 43 0 21.5 0L0 0Z" fill="#b7b2b6"></path></svg>