<svg id="visual" viewBox="0 0 900 600" width="900" height="600" xmlns="http://www.w3.org/2000/svg" xmlns:xlink="http://www.w3.org/1999/xlink" version="1.1"><path d="M0 159L30 157.7C60 156.3 120 153.7 180 143.7C240 133.7 300 116.3 360 118C420 119.7 480 140.3 540 154.5C600 168.7 660 176.3 720 186.5C780 196.7 840 209.3 870 215.7L900 222L900 0L870 0C840 0 780 0 720 0C660 0 600 0 540 0C480 0 420 0 360 0C300 0 240 0 180 0C120 0 60 0 30 0L0 0Z" fill="#828292" stroke-linecap="round" stroke-linejoin="miter"></path></svg>