<svg id="visual" viewBox="0 0 900 600" width="900" height="600" xmlns="http://www.w3.org/2000/svg" xmlns:xlink="http://www.w3.org/1999/xlink" version="1.1"><path d="M0 409L21.5 412.2C43 415.3 86 421.7 128.8 433.2C171.7 444.7 214.3 461.3 257.2 465.3C300 469.3 343 460.7 385.8 448.5C428.7 436.3 471.3 420.7 514.2 418.7C557 416.7 600 428.3 642.8 433.8C685.7 439.3 728.3 438.7 771.2 432.7C814 426.7 857 415.3 878.5 409.7L900 404L900 601L878.5 601C857 601 814 601 771.2 601C728.3 601 685.7 601 642.8 601C600 601 557 601 514.2 601C471.3 601 428.7 601 385.8 601C343 601 300 601 257.2 601C214.3 601 171.7 601 128.8 601C86 601 43 601 21.5 601L0 601Z" fill="#3f5a6d"></path><path d="M0 519L21.5 518.3C43 517.7 86 516.3 128.8 513.5C171.7 510.7 214.3 506.3 257.2 505.3C300 504.3 343 506.7 385.8 505C428.7 503.3 471.3 497.7 514.2 489C557 480.3 600 468.7 642.8 469.8C685.7 471 728.3 485 771.2 490C814 495 857 491 878.5 489L900 487L900 601L878.5 601C857 601 814 601 771.2 601C728.3 601 685.7 601 642.8 601C600 601 557 601 514.2 601C471.3 601 428.7 601 385.8 601C343 601 300 601 257.2 601C214.3 601 171.7 601 128.8 601C86 601 43 601 21.5 601L0 601Z" fill="#828292"></path><path d="M0 522L21.5 526.7C43 531.3 86 540.7 128.8 541.5C171.7 542.3 214.3 534.7 257.2 529.7C300 524.7 343 522.3 385.8 522.2C428.7 522 471.3 524 514.2 524.8C557 525.7 600 525.3 642.8 522.8C685.7 520.3 728.3 515.7 771.2 516.7C814 517.7 857 524.3 878.5 527.7L900 531L900 601L878.5 601C857 601 814 601 771.2 601C728.3 601 685.7 601 642.8 601C600 601 557 601 514.2 601C471.3 601 428.7 601 385.8 601C343 601 300 601 257.2 601C214.3 601 171.7 601 128.8 601C86 601 43 601 21.5 601L0 601Z" fill="#b7b2b6"></path></svg>