<svg id="visual" viewBox="0 0 900 600" width="900" height="600" xmlns="http://www.w3.org/2000/svg" xmlns:xlink="http://www.w3.org/1999/xlink" version="1.1"><path d="M0 99L21.5 103.8C43 108.7 86 118.3 128.8 122.8C171.7 127.3 214.3 126.7 257.2 121.5C300 116.3 343 106.7 385.8 101.2C428.7 95.7 471.3 94.3 514.2 95.3C557 96.3 600 99.7 642.8 101.7C685.7 103.7 728.3 104.3 771.2 103.7C814 103 857 101 878.5 100L900 99L900 0L878.5 0C857 0 814 0 771.2 0C728.3 0 685.7 0 642.8 0C600 0 557 0 514.2 0C471.3 0 428.7 0 385.8 0C343 0 300 0 257.2 0C214.3 0 171.7 0 128.8 0C86 0 43 0 21.5 0L0 0Z" fill="#d4547f"></path><path d="M0 91L21.5 90.2C43 89.3 86 87.7 128.8 84.3C171.7 81 214.3 76 257.2 76.5C300 77 343 83 385.8 90.5C428.7 98 471.3 107 514.2 106.8C557 106.7 600 97.3 642.8 94.2C685.7 91 728.3 94 771.2 97.8C814 101.7 857 106.3 878.5 108.7L900 111L900 0L878.5 0C857 0 814 0 771.2 0C728.3 0 685.7 0 642.8 0C600 0 557 0 514.2 0C471.3 0 428.7 0 385.8 0C343 0 300 0 257.2 0C214.3 0 171.7 0 128.8 0C86 0 43 0 21.5 0L0 0Z" fill="#d14a79"></path><path d="M0 91L21.5 88C43 85 86 79 128.8 78.3C171.7 77.7 214.3 82.3 257.2 79.7C300 77 343 67 385.8 64C428.7 61 471.3 65 514.2 71.5C557 78 600 87 642.8 89.3C685.7 91.7 728.3 87.3 771.2 82.3C814 77.3 857 71.7 878.5 68.8L900 66L900 0L878.5 0C857 0 814 0 771.2 0C728.3 0 685.7 0 642.8 0C600 0 557 0 514.2 0C471.3 0 428.7 0 385.8 0C343 0 300 0 257.2 0C214.3 0 171.7 0 128.8 0C86 0 43 0 21.5 0L0 0Z" fill="#cd3f73"></path><path d="M0 59L21.5 58.3C43 57.7 86 56.3 128.8 56.2C171.7 56 214.3 57 257.2 53.8C300 50.7 343 43.3 385.8 40C428.7 36.7 471.3 37.3 514.2 39.7C557 42 600 46 642.8 48.8C685.7 51.7 728.3 53.3 771.2 55.8C814 58.3 857 61.7 878.5 63.3L900 65L900 0L878.5 0C857 0 814 0 771.2 0C728.3 0 685.7 0 642.8 0C600 0 557 0 514.2 0C471.3 0 428.7 0 385.8 0C343 0 300 0 257.2 0C214.3 0 171.7 0 128.8 0C86 0 43 0 21.5 0L0 0Z" fill="#ca326d"></path><path d="M0 22L21.5 22.3C43 22.7 86 23.3 128.8 25C171.7 26.7 214.3 29.3 257.2 32C300 34.7 343 37.3 385.8 35C428.7 32.7 471.3 25.3 514.2 21.8C557 18.3 600 18.7 642.8 20.5C685.7 22.3 728.3 25.7 771.2 26.5C814 27.3 857 25.7 878.5 24.8L900 24L900 0L878.5 0C857 0 814 0 771.2 0C728.3 0 685.7 0 642.8 0C600 0 557 0 514.2 0C471.3 0 428.7 0 385.8 0C343 0 300 0 257.2 0C214.3 0 171.7 0 128.8 0C86 0 43 0 21.5 0L0 0Z" fill="#c62368"></path></svg>