<svg id="visual" viewBox="0 0 900 600" width="900" height="600" xmlns="http://www.w3.org/2000/svg" xmlns:xlink="http://www.w3.org/1999/xlink" version="1.1"><path d="M0 219L21.5 203.7C43 188.3 86 157.7 128.8 153.3C171.7 149 214.3 171 257.2 182.3C300 193.7 343 194.3 385.8 190.7C428.7 187 471.3 179 514.2 171.3C557 163.7 600 156.3 642.8 162.3C685.7 168.3 728.3 187.7 771.2 181.3C814 175 857 143 878.5 127L900 111L900 0L878.5 0C857 0 814 0 771.2 0C728.3 0 685.7 0 642.8 0C600 0 557 0 514.2 0C471.3 0 428.7 0 385.8 0C343 0 300 0 257.2 0C214.3 0 171.7 0 128.8 0C86 0 43 0 21.5 0L0 0Z" fill="#d4547f" stroke-linecap="round" stroke-linejoin="miter"></path></svg>