<svg id="visual" viewBox="0 0 900 600" width="900" height="600" xmlns="http://www.w3.org/2000/svg" xmlns:xlink="http://www.w3.org/1999/xlink" version="1.1"><path d="M0 461L21.5 464.2C43 467.3 86 473.7 128.8 472.2C171.7 470.7 214.3 461.3 257.2 457.2C300 453 343 454 385.8 461.7C428.7 469.3 471.3 483.7 514.2 484.8C557 486 600 474 642.8 475.2C685.7 476.3 728.3 490.7 771.2 496C814 501.3 857 497.7 878.5 495.8L900 494L900 601L878.5 601C857 601 814 601 771.2 601C728.3 601 685.7 601 642.8 601C600 601 557 601 514.2 601C471.3 601 428.7 601 385.8 601C343 601 300 601 257.2 601C214.3 601 171.7 601 128.8 601C86 601 43 601 21.5 601L0 601Z" fill="#ffffff"></path><path d="M0 485L21.5 483.8C43 482.7 86 480.3 128.8 487C171.7 493.7 214.3 509.3 257.2 515.8C300 522.3 343 519.7 385.8 518.2C428.7 516.7 471.3 516.3 514.2 511.5C557 506.7 600 497.3 642.8 498.8C685.7 500.3 728.3 512.7 771.2 512.7C814 512.7 857 500.3 878.5 494.2L900 488L900 601L878.5 601C857 601 814 601 771.2 601C728.3 601 685.7 601 642.8 601C600 601 557 601 514.2 601C471.3 601 428.7 601 385.8 601C343 601 300 601 257.2 601C214.3 601 171.7 601 128.8 601C86 601 43 601 21.5 601L0 601Z" fill="#f7cdd7"></path><path d="M0 511L21.5 512.2C43 513.3 86 515.7 128.8 515C171.7 514.3 214.3 510.7 257.2 514.3C300 518 343 529 385.8 533.5C428.7 538 471.3 536 514.2 533.7C557 531.3 600 528.7 642.8 526C685.7 523.3 728.3 520.7 771.2 522.3C814 524 857 530 878.5 533L900 536L900 601L878.5 601C857 601 814 601 771.2 601C728.3 601 685.7 601 642.8 601C600 601 557 601 514.2 601C471.3 601 428.7 601 385.8 601C343 601 300 601 257.2 601C214.3 601 171.7 601 128.8 601C86 601 43 601 21.5 601L0 601Z" fill="#ea9bb0"></path><path d="M0 535L21.5 538.7C43 542.3 86 549.7 128.8 549.2C171.7 548.7 214.3 540.3 257.2 535.5C300 530.7 343 529.3 385.8 532.5C428.7 535.7 471.3 543.3 514.2 546.7C557 550 600 549 642.8 546.3C685.7 543.7 728.3 539.3 771.2 539.7C814 540 857 545 878.5 547.5L900 550L900 601L878.5 601C857 601 814 601 771.2 601C728.3 601 685.7 601 642.8 601C600 601 557 601 514.2 601C471.3 601 428.7 601 385.8 601C343 601 300 601 257.2 601C214.3 601 171.7 601 128.8 601C86 601 43 601 21.5 601L0 601Z" fill="#da678b"></path><path d="M0 565L21.5 563.7C43 562.3 86 559.7 128.8 562.2C171.7 564.7 214.3 572.3 257.2 573.5C300 574.7 343 569.3 385.8 569.7C428.7 570 471.3 576 514.2 577.2C557 578.3 600 574.7 642.8 571.3C685.7 568 728.3 565 771.2 565.2C814 565.3 857 568.7 878.5 570.3L900 572L900 601L878.5 601C857 601 814 601 771.2 601C728.3 601 685.7 601 642.8 601C600 601 557 601 514.2 601C471.3 601 428.7 601 385.8 601C343 601 300 601 257.2 601C214.3 601 171.7 601 128.8 601C86 601 43 601 21.5 601L0 601Z" fill="#c62368"></path></svg>