<svg id="visual" viewBox="0 0 900 600" width="900" height="600" xmlns="http://www.w3.org/2000/svg" xmlns:xlink="http://www.w3.org/1999/xlink" version="1.1"><path d="M0 166L21.5 167.7C43 169.3 86 172.7 128.8 174C171.7 175.3 214.3 174.7 257.2 170C300 165.3 343 156.7 385.8 155.5C428.7 154.3 471.3 160.7 514.2 165.8C557 171 600 175 642.8 171.3C685.7 167.7 728.3 156.3 771.2 153.8C814 151.3 857 157.7 878.5 160.8L900 164L900 0L878.5 0C857 0 814 0 771.2 0C728.3 0 685.7 0 642.8 0C600 0 557 0 514.2 0C471.3 0 428.7 0 385.8 0C343 0 300 0 257.2 0C214.3 0 171.7 0 128.8 0C86 0 43 0 21.5 0L0 0Z" fill="#b832ff"></path><path d="M0 131L21.5 125.7C43 120.3 86 109.7 128.8 107C171.7 104.3 214.3 109.7 257.2 107.7C300 105.7 343 96.3 385.8 91.3C428.7 86.3 471.3 85.7 514.2 86C557 86.3 600 87.7 642.8 94.2C685.7 100.7 728.3 112.3 771.2 112.3C814 112.3 857 100.7 878.5 94.8L900 89L900 0L878.5 0C857 0 814 0 771.2 0C728.3 0 685.7 0 642.8 0C600 0 557 0 514.2 0C471.3 0 428.7 0 385.8 0C343 0 300 0 257.2 0C214.3 0 171.7 0 128.8 0C86 0 43 0 21.5 0L0 0Z" fill="#c823ff"></path><path d="M0 29L21.5 37.3C43 45.7 86 62.3 128.8 71.2C171.7 80 214.3 81 257.2 74.5C300 68 343 54 385.8 51.5C428.7 49 471.3 58 514.2 57C557 56 600 45 642.8 39C685.7 33 728.3 32 771.2 36C814 40 857 49 878.5 53.5L900 58L900 0L878.5 0C857 0 814 0 771.2 0C728.3 0 685.7 0 642.8 0C600 0 557 0 514.2 0C471.3 0 428.7 0 385.8 0C343 0 300 0 257.2 0C214.3 0 171.7 0 128.8 0C86 0 43 0 21.5 0L0 0Z" fill="#d801ff"></path></svg>