<svg id="visual" viewBox="0 0 900 600" width="900" height="600" xmlns="http://www.w3.org/2000/svg" xmlns:xlink="http://www.w3.org/1999/xlink" version="1.1"><path d="M0 478L21.5 474.2C43 470.3 86 462.7 128.8 450.2C171.7 437.7 214.3 420.3 257.2 416.5C300 412.7 343 422.3 385.8 427.5C428.7 432.7 471.3 433.3 514.2 442.2C557 451 600 468 642.8 475.2C685.7 482.3 728.3 479.7 771.2 477.8C814 476 857 475 878.5 474.5L900 474L900 601L878.5 601C857 601 814 601 771.2 601C728.3 601 685.7 601 642.8 601C600 601 557 601 514.2 601C471.3 601 428.7 601 385.8 601C343 601 300 601 257.2 601C214.3 601 171.7 601 128.8 601C86 601 43 601 21.5 601L0 601Z" fill="#9644ff"></path><path d="M0 456L21.5 460.8C43 465.7 86 475.3 128.8 484C171.7 492.7 214.3 500.3 257.2 503.2C300 506 343 504 385.8 506.3C428.7 508.7 471.3 515.3 514.2 519C557 522.7 600 523.3 642.8 512.7C685.7 502 728.3 480 771.2 480.3C814 480.7 857 503.3 878.5 514.7L900 526L900 601L878.5 601C857 601 814 601 771.2 601C728.3 601 685.7 601 642.8 601C600 601 557 601 514.2 601C471.3 601 428.7 601 385.8 601C343 601 300 601 257.2 601C214.3 601 171.7 601 128.8 601C86 601 43 601 21.5 601L0 601Z" fill="#b832ff"></path><path d="M0 535L21.5 538C43 541 86 547 128.8 545.2C171.7 543.3 214.3 533.7 257.2 528.8C300 524 343 524 385.8 521.7C428.7 519.3 471.3 514.7 514.2 513.3C557 512 600 514 642.8 517.3C685.7 520.7 728.3 525.3 771.2 528C814 530.7 857 531.3 878.5 531.7L900 532L900 601L878.5 601C857 601 814 601 771.2 601C728.3 601 685.7 601 642.8 601C600 601 557 601 514.2 601C471.3 601 428.7 601 385.8 601C343 601 300 601 257.2 601C214.3 601 171.7 601 128.8 601C86 601 43 601 21.5 601L0 601Z" fill="#d801ff"></path></svg>