<svg id="visual" viewBox="0 0 900 600" width="900" height="600" xmlns="http://www.w3.org/2000/svg" xmlns:xlink="http://www.w3.org/1999/xlink" version="1.1"><path d="M0 130L21.5 123.7C43 117.3 86 104.7 128.8 114.5C171.7 124.3 214.3 156.7 257.2 171.5C300 186.3 343 183.7 385.8 172.8C428.7 162 471.3 143 514.2 139.2C557 135.3 600 146.7 642.8 151C685.7 155.3 728.3 152.7 771.2 140.2C814 127.7 857 105.3 878.5 94.2L900 83L900 0L878.5 0C857 0 814 0 771.2 0C728.3 0 685.7 0 642.8 0C600 0 557 0 514.2 0C471.3 0 428.7 0 385.8 0C343 0 300 0 257.2 0C214.3 0 171.7 0 128.8 0C86 0 43 0 21.5 0L0 0Z" fill="#b832ff" stroke-linecap="round" stroke-linejoin="miter"></path></svg>