<svg id="visual" viewBox="0 0 900 600" width="900" height="600" xmlns="http://www.w3.org/2000/svg" xmlns:xlink="http://www.w3.org/1999/xlink" version="1.1"><path d="M0 95L21.5 95.5C43 96 86 97 128.8 105C171.7 113 214.3 128 257.2 135.2C300 142.3 343 141.7 385.8 136.8C428.7 132 471.3 123 514.2 115.7C557 108.3 600 102.7 642.8 99.3C685.7 96 728.3 95 771.2 103.2C814 111.3 857 128.7 878.5 137.3L900 146L900 0L878.5 0C857 0 814 0 771.2 0C728.3 0 685.7 0 642.8 0C600 0 557 0 514.2 0C471.3 0 428.7 0 385.8 0C343 0 300 0 257.2 0C214.3 0 171.7 0 128.8 0C86 0 43 0 21.5 0L0 0Z" fill="#a04f67"></path><path d="M0 87L21.5 82.2C43 77.3 86 67.7 128.8 70.2C171.7 72.7 214.3 87.3 257.2 93.8C300 100.3 343 98.7 385.8 94.7C428.7 90.7 471.3 84.3 514.2 80C557 75.7 600 73.3 642.8 74.5C685.7 75.7 728.3 80.3 771.2 84.8C814 89.3 857 93.7 878.5 95.8L900 98L900 0L878.5 0C857 0 814 0 771.2 0C728.3 0 685.7 0 642.8 0C600 0 557 0 514.2 0C471.3 0 428.7 0 385.8 0C343 0 300 0 257.2 0C214.3 0 171.7 0 128.8 0C86 0 43 0 21.5 0L0 0Z" fill="#a56c82"></path><path d="M0 51L21.5 52.5C43 54 86 57 128.8 54.3C171.7 51.7 214.3 43.3 257.2 41.5C300 39.7 343 44.3 385.8 43.8C428.7 43.3 471.3 37.7 514.2 35.8C557 34 600 36 642.8 35.3C685.7 34.7 728.3 31.3 771.2 30C814 28.7 857 29.3 878.5 29.7L900 30L900 0L878.5 0C857 0 814 0 771.2 0C728.3 0 685.7 0 642.8 0C600 0 557 0 514.2 0C471.3 0 428.7 0 385.8 0C343 0 300 0 257.2 0C214.3 0 171.7 0 128.8 0C86 0 43 0 21.5 0L0 0Z" fill="#a98899"></path></svg>