<svg id="visual" viewBox="0 0 900 600" width="900" height="600" xmlns="http://www.w3.org/2000/svg" xmlns:xlink="http://www.w3.org/1999/xlink" version="1.1"><path d="M0 424L25 422.7C50 421.3 100 418.7 150 377.7C200 336.7 250 257.3 300 211C350 164.7 400 151.3 450 166.3C500 181.3 550 224.7 600 233.3C650 242 700 216 750 207.5C800 199 850 208 875 212.5L900 217L900 0L875 0C850 0 800 0 750 0C700 0 650 0 600 0C550 0 500 0 450 0C400 0 350 0 300 0C250 0 200 0 150 0C100 0 50 0 25 0L0 0Z" fill="#a04f67" stroke-linecap="round" stroke-linejoin="miter"></path></svg>