<svg id="visual" viewBox="0 0 900 600" width="900" height="600" xmlns="http://www.w3.org/2000/svg" xmlns:xlink="http://www.w3.org/1999/xlink" version="1.1"><path d="M0 453L21.5 457.2C43 461.3 86 469.7 128.8 470C171.7 470.3 214.3 462.7 257.2 468C300 473.3 343 491.7 385.8 494.3C428.7 497 471.3 484 514.2 474.3C557 464.7 600 458.3 642.8 461.5C685.7 464.7 728.3 477.3 771.2 484.3C814 491.3 857 492.7 878.5 493.3L900 494L900 601L878.5 601C857 601 814 601 771.2 601C728.3 601 685.7 601 642.8 601C600 601 557 601 514.2 601C471.3 601 428.7 601 385.8 601C343 601 300 601 257.2 601C214.3 601 171.7 601 128.8 601C86 601 43 601 21.5 601L0 601Z" fill="#8b0027"></path><path d="M0 526L21.5 524.2C43 522.3 86 518.7 128.8 520.8C171.7 523 214.3 531 257.2 535C300 539 343 539 385.8 531.7C428.7 524.3 471.3 509.7 514.2 509.5C557 509.3 600 523.7 642.8 524.3C685.7 525 728.3 512 771.2 507C814 502 857 505 878.5 506.5L900 508L900 601L878.5 601C857 601 814 601 771.2 601C728.3 601 685.7 601 642.8 601C600 601 557 601 514.2 601C471.3 601 428.7 601 385.8 601C343 601 300 601 257.2 601C214.3 601 171.7 601 128.8 601C86 601 43 601 21.5 601L0 601Z" fill="#a04f67"></path><path d="M0 540L21.5 542.7C43 545.3 86 550.7 128.8 555C171.7 559.3 214.3 562.7 257.2 563.5C300 564.3 343 562.7 385.8 563C428.7 563.3 471.3 565.7 514.2 567.5C557 569.3 600 570.7 642.8 567.7C685.7 564.7 728.3 557.3 771.2 555.3C814 553.3 857 556.7 878.5 558.3L900 560L900 601L878.5 601C857 601 814 601 771.2 601C728.3 601 685.7 601 642.8 601C600 601 557 601 514.2 601C471.3 601 428.7 601 385.8 601C343 601 300 601 257.2 601C214.3 601 171.7 601 128.8 601C86 601 43 601 21.5 601L0 601Z" fill="#a98899"></path></svg>